<svg width="18" height="18" viewBox="0 0 18 18" fill="none" xmlns="http://www.w3.org/2000/svg">
<path d="M0 18V16H16V18H0ZM14 5H16V2H14V5ZM4 14C2.9 14 1.95833 13.6083 1.175 12.825C0.391667 12.0417 0 11.1 0 10V0H5V2.4L3.2 3.85C3.16667 3.88333 3.1 4.01667 3 4.25V8.5C3 8.63333 3.05 8.75 3.15 8.85C3.25 8.95 3.36667 9 3.5 9H7.5C7.63333 9 7.75 8.95 7.85 8.85C7.95 8.75 8 8.63333 8 8.5V4.25C8 4.21667 7.93333 4.08333 7.8 3.85L6 2.4V0H16C16.55 0 17.0208 0.195833 17.4125 0.5875C17.8042 0.979167 18 1.45 18 2V5C18 5.55 17.8042 6.02083 17.4125 6.4125C17.0208 6.80417 16.55 7 16 7H14V10C14 11.1 13.6083 12.0417 12.825 12.825C12.0417 13.6083 11.1 14 10 14H4Z" fill="#916A70"/>
</svg>
